mtllib box.mtl
g g0
v 0.743123 2.0885 0.0900055
v -0.818658 2.0885 -0.0935984
v -0.818658 0.0114999 -0.0935984
v 0.743123 0.0114999 0.0900055
v 0.743123 -0.0115005 0.0900055
v -0.818658 -0.0115005 -0.0935984
v -0.818658 -2.0885 -0.0935984
v 0.743123 -2.0885 0.0900055
v 0.743123 -2.0885 -0.0935987
v 0.743123 -2.0885 0.0935985
v -0.818658 -2.0885 0.0935985
v -0.818658 -2.0885 -0.0935984
v -0.818658 -0.0115005 -0.0935984
v -0.818658 -0.0115005 0.0935985
v 0.743123 -0.0115005 0.0935985
v 0.743123 -0.0115005 -0.0935987
v 0.763541 -2.07477 0.0935985
v 0.763541 -0.0252303 0.0935985
v 0.780656 -2.04817 0.0935985
v 0.780656 -0.0518333 0.0935985
v 0.763541 -0.0252303 -0.0935987
v 0.763541 -2.07477 -0.0935987
v 0.780656 -2.04817 -0.0935987
v 0.780656 -0.0518333 -0.0935987
v 0.780656 0.0518327 -0.0935987
v 0.780656 2.04817 -0.0935987
v 0.763541 2.07477 -0.0935987
v 0.763541 0.0252297 -0.0935987
v 0.780656 0.0518327 0.0935985
v 0.780656 2.04817 0.0935985
v 0.763541 0.0252297 0.0935985
v 0.763541 2.07477 0.0935985
v 0.743123 0.0114999 -0.0935987
v 0.743123 0.0114999 0.0935985
v -0.818658 0.0114999 0.0935985
v -0.818658 0.0114999 -0.0935984
v -0.818658 2.0885 -0.0935984
v -0.818658 2.0885 0.0935985
v 0.743123 2.0885 0.0935985
v 0.743123 2.0885 -0.0935987
vn -0.116757 0 0.993161
vn -0.116757 0 0.993161
vn -0.116757 0 0.993161
vn -0.116757 0 0.993161
vn -0.116757 0 0.993161
vn -0.116757 0 0.993161
vn -0.116757 0 0.993161
vn -0.116757 0 0.993161
vn -0.116757 0 0.993161
vn -0.116757 0 0.993161
vn -0.116757 0 0.993161
vn -0.116757 0 0.993161
vn 0 -1 0
vn 0.193466 -0.981107 0
vn 0 -1 0
vn 0.386931 -0.922109 0
vn 0 -1 0
vn 0.193466 -0.981107 0
vn -1 0 0
vn -1 0 0
vn -1 0 0
vn -1 0 0
vn -1 0 0
vn -1 0 0
vn 0 0 1
vn 0 0 1
vn 0 0 1
vn 0 0 1
vn 0 0 1
vn 0 0 1
vn 0.386926 0.922111 0
vn 0 1 0
vn 0.193463 0.981108 0
vn 0 1 0
vn 0.193463 0.981108 0
vn 0 1 0
vn -1.90823e-007 0 -1
vn -1.90823e-007 0 -1
vn -1.27215e-007 0 -1
vn -6.36076e-008 0 -1
vn -1.27215e-007 0 -1
vn -1.90823e-007 0 -1
vn 0 0 1
vn 0 0 1
vn 0 0 1
vn 0 0 1
vn 0 0 1
vn 0 0 1
vn 0 0 1
vn 0 0 1
vn 0 0 1
vn 0 0 1
vn 0 0 1
vn 0 0 1
vn 0.714248 0.699893 0
vn 0.386926 0.922111 0
vn 0.714248 0.699893 0
vn 0.193463 0.981108 0
vn 0.714248 0.699893 0
vn 0.386926 0.922111 0
vn 0.193466 -0.981107 0
vn 0.714232 -0.699909 0
vn 0.386931 -0.922109 0
vn 0.714232 -0.699909 0
vn 0.386931 -0.922109 0
vn 0.714232 -0.699909 0
vn -1.27215e-007 0 -1
vn -6.36076e-008 0 -1
vn 0 0 -1
vn 0 0 -1
vn 0 0 -1
vn -6.36076e-008 0 -1
vn 0.927349 -0.374197 0
vn 0.982341 -0.187098 0
vn 0.982344 0.187082 0
vn 0.927363 0.374163 0
vn 0.982344 0.187082 0
vn 0.982341 -0.187098 0
vn 0.982344 0.187082 0
vn 0.927363 0.374163 0
vn 0.714248 0.699893 0
vn 0.714248 0.699893 0
vn 0.714248 0.699893 0
vn 0.927363 0.374163 0
vn 0.714232 -0.699909 0
vn 0.714232 -0.699909 0
vn 0.927349 -0.374197 0
vn 0.982341 -0.187098 0
vn 0.927349 -0.374197 0
vn 0.714232 -0.699909 0
vn 0 0 -1
vn 0 0 -1
vn 0 0 -1
vn 0 0 -1
vn 0 0 -1
vn 0 0 -1
vn 0 0 -1
vn 0 0 -1
vn 0 0 -1
vn 0 0 -1
vn 0 0 -1
vn 0 0 -1
vn 0.714232 0.699909 0
vn 0.927349 0.374197 0
vn 0.982341 0.187098 0
vn 0.927349 0.374197 0
vn 0.714232 0.699909 0
vn 0.714232 0.699909 0
vn 0.927363 -0.374163 0
vn 0.714248 -0.699893 0
vn 0.714248 -0.699893 0
vn 0.714248 -0.699893 0
vn 0.927363 -0.374163 0
vn 0.982344 -0.187082 0
vn 0.982341 0.187098 0
vn 0.982344 -0.187082 0
vn 0.927363 -0.374163 0
vn 0.982344 -0.187082 0
vn 0.982341 0.187098 0
vn 0.927349 0.374197 0
vn -6.36076e-008 0 -1
vn 0 0 -1
vn 0 0 -1
vn 0 0 -1
vn -6.36076e-008 0 -1
vn -1.27215e-007 0 -1
vn 0.714232 0.699909 0
vn 0.386931 0.922109 0
vn 0.714232 0.699909 0
vn 0.386931 0.922109 0
vn 0.714232 0.699909 0
vn 0.193466 0.981107 0
vn 0.386926 -0.922111 0
vn 0.714248 -0.699893 0
vn 0.193463 -0.981108 0
vn 0.714248 -0.699893 0
vn 0.386926 -0.922111 0
vn 0.714248 -0.699893 0
vn 0 0 1
vn 0 0 1
vn 0 0 1
vn 0 0 1
vn 0 0 1
vn 0 0 1
vn 0 0 1
vn 0 0 1
vn 0 0 1
vn 0 0 1
vn 0 0 1
vn 0 0 1
vn -1.90823e-007 0 -1
vn -1.27215e-007 0 -1
vn -6.36076e-008 0 -1
vn -1.27215e-007 0 -1
vn -1.90823e-007 0 -1
vn -1.90823e-007 0 -1
vn 0 -1 0
vn 0.193463 -0.981108 0
vn 0 -1 0
vn 0.193463 -0.981108 0
vn 0 -1 0
vn 0.386926 -0.922111 0
vn 0 0 1
vn 0 0 1
vn 0 0 1
vn 0 0 1
vn 0 0 1
vn 0 0 1
vn -1 0 0
vn -1 0 0
vn -1 0 0
vn -1 0 0
vn -1 0 0
vn -1 0 0
vn 0.193466 0.981107 0
vn 0 1 0
vn 0.386931 0.922109 0
vn 0 1 0
vn 0.193466 0.981107 0
vn 0 1 0
vt 0.485539 0.00965431
vt 0.485539 0.00874622
vt 0.484795 0.00965431
vt 0.484795 0.00874622
vt 0.484795 0.00965431
vt 0.485539 0.00874622
vt 0.485539 0.00874622
vt 0.484795 0.00965431
vt 0.484795 0.00874622
vt 0.484795 0.00965431
vt 0.485539 0.00874622
vt 0.485539 0.00965431
vt 0.474937 0.03578
vt 0.003677 0.03578
vt 0.474937 0.002769
vt 0.003677 0.002769
vt 0.474937 0.002769
vt 0.003677 0.03578
vt 0.48058 0.99686
vt 0.51942 0.99686
vt 0.48058 0.0428
vt 0.51942 0.0428
vt 0.48058 0.0428
vt 0.51942 0.99686
vt 0.51708 0.036968
vt 0.51708 0.998171
vt 0.987366 0.036968
vt 0.987366 0.998171
vt 0.987366 0.036968
vt 0.51708 0.998171
vt 0.003677 0.03578
vt 0.474937 0.03578
vt 0.003677 0.002769
vt 0.474937 0.002769
vt 0.003677 0.002769
vt 0.474937 0.03578
vt 0.482228 0.998171
vt 0.482228 0.036968
vt 0.011942 0.998171
vt 0.011942 0.036968
vt 0.011942 0.998171
vt 0.482228 0.036968
vt 0.987366 0.036968
vt 0.987366 0.998171
vt 0.993514 0.043321
vt 0.993514 0.991819
vt 0.993514 0.043321
vt 0.987366 0.998171
vt 0.993514 0.043321
vt 0.993514 0.991819
vt 0.998668 0.055633
vt 0.998668 0.979507
vt 0.998668 0.055633
vt 0.993514 0.991819
vt 0.532543 0.002973
vt 0.529523 0.002973
vt 0.532543 0.036041
vt 0.529523 0.036041
vt 0.532543 0.036041
vt 0.529523 0.002973
vt 0.986538 0.002973
vt 0.983518 0.002973
vt 0.986538 0.036041
vt 0.983518 0.036041
vt 0.986538 0.036041
vt 0.983518 0.002973
vt 0.011942 0.998171
vt 0.011942 0.036968
vt 0.005794 0.991819
vt 0.005794 0.043321
vt 0.005794 0.991819
vt 0.011942 0.036968
vt 0.977664 0.036041
vt 0.977664 0.002973
vt 0.538397 0.036041
vt 0.538397 0.002973
vt 0.538397 0.036041
vt 0.977664 0.002973
vt 0.538397 0.036041
vt 0.538397 0.002973
vt 0.532543 0.036041
vt 0.532543 0.002973
vt 0.532543 0.036041
vt 0.538397 0.002973
vt 0.983518 0.036041
vt 0.983518 0.002973
vt 0.977664 0.036041
vt 0.977664 0.002973
vt 0.977664 0.036041
vt 0.983518 0.002973
vt 0.005794 0.991819
vt 0.005794 0.043321
vt 0.00064 0.979507
vt 0.00064 0.055633
vt 0.00064 0.979507
vt 0.005794 0.043321
vt 0.005794 0.043321
vt 0.00064 0.979507
vt 0.00064 0.055633
vt 0.00064 0.979507
vt 0.005794 0.043321
vt 0.005794 0.991819
vt 0.983518 0.002973
vt 0.977664 0.036041
vt 0.977664 0.002973
vt 0.977664 0.036041
vt 0.983518 0.002973
vt 0.983518 0.036041
vt 0.538397 0.002973
vt 0.532543 0.036041
vt 0.532543 0.002973
vt 0.532543 0.036041
vt 0.538397 0.002973
vt 0.538397 0.036041
vt 0.977664 0.002973
vt 0.538397 0.036041
vt 0.538397 0.002973
vt 0.538397 0.036041
vt 0.977664 0.002973
vt 0.977664 0.036041
vt 0.011942 0.036968
vt 0.005794 0.991819
vt 0.005794 0.043321
vt 0.005794 0.991819
vt 0.011942 0.036968
vt 0.011942 0.998171
vt 0.983518 0.002973
vt 0.986538 0.036041
vt 0.983518 0.036041
vt 0.986538 0.036041
vt 0.983518 0.002973
vt 0.986538 0.002973
vt 0.529523 0.002973
vt 0.532543 0.036041
vt 0.529523 0.036041
vt 0.532543 0.036041
vt 0.529523 0.002973
vt 0.532543 0.002973
vt 0.993514 0.991819
vt 0.998668 0.055633
vt 0.998668 0.979507
vt 0.998668 0.055633
vt 0.993514 0.991819
vt 0.993514 0.043321
vt 0.987366 0.998171
vt 0.993514 0.043321
vt 0.993514 0.991819
vt 0.993514 0.043321
vt 0.987366 0.998171
vt 0.987366 0.036968
vt 0.482228 0.036968
vt 0.011942 0.998171
vt 0.011942 0.036968
vt 0.011942 0.998171
vt 0.482228 0.036968
vt 0.482228 0.998171
vt 0.474937 0.03578
vt 0.003677 0.002769
vt 0.474937 0.002769
vt 0.003677 0.002769
vt 0.474937 0.03578
vt 0.003677 0.03578
vt 0.51708 0.998171
vt 0.987366 0.036968
vt 0.987366 0.998171
vt 0.987366 0.036968
vt 0.51708 0.998171
vt 0.51708 0.036968
vt 0.51942 0.99686
vt 0.48058 0.0428
vt 0.51942 0.0428
vt 0.48058 0.0428
vt 0.51942 0.99686
vt 0.48058 0.99686
vt 0.003677 0.03578
vt 0.474937 0.002769
vt 0.003677 0.002769
vt 0.474937 0.002769
vt 0.003677 0.03578
vt 0.474937 0.03578
usemtl acmat_0
f 2/1/1 3/2/2 1/3/3
f 4/4/4 1/5/5 3/6/6
f 6/7/7 8/8/8 5/9/9
f 8/10/10 6/11/11 7/12/12
f 12/13/13 9/14/14 11/15/15
f 10/16/16 11/17/17 9/18/18
f 12/19/19 11/20/20 13/21/21
f 14/22/22 13/23/23 11/24/24
f 14/25/25 11/26/26 15/27/27
f 10/28/28 15/29/29 11/30/30
f 16/31/31 13/32/32 15/33/33
f 14/34/34 15/35/35 13/36/36
f 12/37/37 13/38/38 9/39/39
f 16/40/40 9/41/41 13/42/42
f 15/43/43 10/44/44 18/45/45
f 17/46/46 18/47/47 10/48/48
f 18/49/49 17/50/50 20/51/51
f 19/52/52 20/53/53 17/54/54
f 21/55/55 16/56/56 18/57/57
f 15/58/58 18/59/59 16/60/60
f 9/61/61 22/62/62 10/63/63
f 17/64/64 10/65/65 22/66/66
f 9/67/67 16/68/68 22/69/69
f 21/70/70 22/71/71 16/72/72
f 19/73/73 23/74/74 20/75/75
f 24/76/76 20/77/77 23/78/78
f 20/79/79 24/80/80 18/81/81
f 21/82/82 18/83/83 24/84/84
f 17/85/85 22/86/86 19/87/87
f 23/88/88 19/89/89 22/90/90
f 22/91/91 21/92/92 23/93/93
f 24/94/94 23/95/95 21/96/96
f 28/97/97 26/98/98 25/99/99
f 26/100/100 28/101/101 27/102/102
f 27/103/103 30/104/104 26/105/105
f 30/106/106 27/107/107 32/108/108
f 25/109/109 31/110/110 28/111/111
f 31/112/112 25/113/113 29/114/114
f 26/115/115 29/116/116 25/117/117
f 29/118/118 26/119/119 30/120/120
f 33/121/121 27/122/122 28/123/123
f 27/124/124 33/125/125 40/126/126
f 27/127/127 39/128/128 32/129/129
f 39/130/130 27/131/131 40/132/132
f 33/133/133 31/134/134 34/135/135
f 31/136/136 33/137/137 28/138/138
f 32/139/139 29/140/140 30/141/141
f 29/142/142 32/143/143 31/144/144
f 39/145/145 31/146/146 32/147/147
f 31/148/148 39/149/149 34/150/150
f 36/151/151 40/152/152 33/153/153
f 40/154/154 36/155/155 37/156/156
f 36/157/157 34/158/158 35/159/159
f 34/160/160 36/161/161 33/162/162
f 38/163/163 34/164/164 39/165/165
f 34/166/166 38/167/167 35/168/168
f 38/169/169 36/170/170 35/171/171
f 36/172/172 38/173/173 37/174/174
f 40/175/175 38/176/176 39/177/177
f 38/178/178 40/179/179 37/180/180
