mtllib box_noreflx.mtl
g g0
v 0.743123 2.0885 0.0900055
v -0.818658 2.0885 -0.0935984
v -0.818658 0.0114999 -0.0935984
v 0.743123 0.0114999 0.0900055
v 0.780656 0.0518327 -0.0935987
v 0.780656 2.04817 -0.0935987
v 0.763541 2.07477 -0.0935987
v 0.763541 0.0252297 -0.0935987
v 0.780656 0.0518327 0.0935985
v 0.780656 2.04817 0.0935985
v 0.763541 0.0252297 0.0935985
v 0.763541 2.07477 0.0935985
v 0.743123 0.0114999 -0.0935987
v 0.743123 0.0114999 0.0935985
v -0.818658 0.0114999 0.0935985
v -0.818658 0.0114999 -0.0935984
v -0.818658 2.0885 -0.0935984
v -0.818658 2.0885 0.0935985
v 0.743123 2.0885 0.0935985
v 0.743123 2.0885 -0.0935987
vn -0.116757 0 0.993161
vn -0.116757 0 0.993161
vn -0.116757 0 0.993161
vn -0.116757 0 0.993161
vn -0.116757 0 0.993161
vn -0.116757 0 0.993161
vn 0 0 -1
vn 0 0 -1
vn 0 0 -1
vn 0 0 -1
vn 0 0 -1
vn 0 0 -1
vn 0.714232 0.699909 0
vn 0.927349 0.374197 0
vn 0.982341 0.187098 0
vn 0.927349 0.374197 0
vn 0.714232 0.699909 0
vn 0.714232 0.699909 0
vn 0.927363 -0.374163 0
vn 0.714248 -0.699893 0
vn 0.714248 -0.699893 0
vn 0.714248 -0.699893 0
vn 0.927363 -0.374163 0
vn 0.982344 -0.187082 0
vn 0.982341 0.187098 0
vn 0.982344 -0.187082 0
vn 0.927363 -0.374163 0
vn 0.982344 -0.187082 0
vn 0.982341 0.187098 0
vn 0.927349 0.374197 0
vn -6.36076e-008 0 -1
vn 0 0 -1
vn 0 0 -1
vn 0 0 -1
vn -6.36076e-008 0 -1
vn -1.27215e-007 0 -1
vn 0.714232 0.699909 0
vn 0.386931 0.922109 0
vn 0.714232 0.699909 0
vn 0.386931 0.922109 0
vn 0.714232 0.699909 0
vn 0.193466 0.981107 0
vn 0.386926 -0.922111 0
vn 0.714248 -0.699893 0
vn 0.193463 -0.981108 0
vn 0.714248 -0.699893 0
vn 0.386926 -0.922111 0
vn 0.714248 -0.699893 0
vn 0 0 1
vn 0 0 1
vn 0 0 1
vn 0 0 1
vn 0 0 1
vn 0 0 1
vn 0 0 1
vn 0 0 1
vn 0 0 1
vn 0 0 1
vn 0 0 1
vn 0 0 1
vn -1.90823e-007 0 -1
vn -1.27215e-007 0 -1
vn -6.36076e-008 0 -1
vn -1.27215e-007 0 -1
vn -1.90823e-007 0 -1
vn -1.90823e-007 0 -1
vn 0 -1 0
vn 0.193463 -0.981108 0
vn 0 -1 0
vn 0.193463 -0.981108 0
vn 0 -1 0
vn 0.386926 -0.922111 0
vn 0 0 1
vn 0 0 1
vn 0 0 1
vn 0 0 1
vn 0 0 1
vn 0 0 1
vn -1 0 0
vn -1 0 0
vn -1 0 0
vn -1 0 0
vn -1 0 0
vn -1 0 0
vn 0.193466 0.981107 0
vn 0 1 0
vn 0.386931 0.922109 0
vn 0 1 0
vn 0.193466 0.981107 0
vn 0 1 0
vt 0.485539 0.00965431
vt 0.485539 0.00874622
vt 0.484795 0.00965431
vt 0.484795 0.00874622
vt 0.484795 0.00965431
vt 0.485539 0.00874622
vt 0.005794 0.043321
vt 0.00064 0.979507
vt 0.00064 0.055633
vt 0.00064 0.979507
vt 0.005794 0.043321
vt 0.005794 0.991819
vt 0.983518 0.002973
vt 0.977664 0.036041
vt 0.977664 0.002973
vt 0.977664 0.036041
vt 0.983518 0.002973
vt 0.983518 0.036041
vt 0.538397 0.002973
vt 0.532543 0.036041
vt 0.532543 0.002973
vt 0.532543 0.036041
vt 0.538397 0.002973
vt 0.538397 0.036041
vt 0.977664 0.002973
vt 0.538397 0.036041
vt 0.538397 0.002973
vt 0.538397 0.036041
vt 0.977664 0.002973
vt 0.977664 0.036041
vt 0.011942 0.036968
vt 0.005794 0.991819
vt 0.005794 0.043321
vt 0.005794 0.991819
vt 0.011942 0.036968
vt 0.011942 0.998171
vt 0.983518 0.002973
vt 0.986538 0.036041
vt 0.983518 0.036041
vt 0.986538 0.036041
vt 0.983518 0.002973
vt 0.986538 0.002973
vt 0.529523 0.002973
vt 0.532543 0.036041
vt 0.529523 0.036041
vt 0.532543 0.036041
vt 0.529523 0.002973
vt 0.532543 0.002973
vt 0.993514 0.991819
vt 0.998668 0.055633
vt 0.998668 0.979507
vt 0.998668 0.055633
vt 0.993514 0.991819
vt 0.993514 0.043321
vt 0.987366 0.998171
vt 0.993514 0.043321
vt 0.993514 0.991819
vt 0.993514 0.043321
vt 0.987366 0.998171
vt 0.987366 0.036968
vt 0.482228 0.036968
vt 0.011942 0.998171
vt 0.011942 0.036968
vt 0.011942 0.998171
vt 0.482228 0.036968
vt 0.482228 0.998171
vt 0.474937 0.03578
vt 0.003677 0.002769
vt 0.474937 0.002769
vt 0.003677 0.002769
vt 0.474937 0.03578
vt 0.003677 0.03578
vt 0.51708 0.998171
vt 0.987366 0.036968
vt 0.987366 0.998171
vt 0.987366 0.036968
vt 0.51708 0.998171
vt 0.51708 0.036968
vt 0.51942 0.99686
vt 0.48058 0.0428
vt 0.51942 0.0428
vt 0.48058 0.0428
vt 0.51942 0.99686
vt 0.48058 0.99686
vt 0.003677 0.03578
vt 0.474937 0.002769
vt 0.003677 0.002769
vt 0.474937 0.002769
vt 0.003677 0.03578
vt 0.474937 0.03578
usemtl acmat_0
f 2/1/1 3/2/2 1/3/3
f 4/4/4 1/5/5 3/6/6
f 8/7/7 6/8/8 5/9/9
f 6/10/10 8/11/11 7/12/12
f 7/13/13 10/14/14 6/15/15
f 10/16/16 7/17/17 12/18/18
f 5/19/19 11/20/20 8/21/21
f 11/22/22 5/23/23 9/24/24
f 6/25/25 9/26/26 5/27/27
f 9/28/28 6/29/29 10/30/30
f 13/31/31 7/32/32 8/33/33
f 7/34/34 13/35/35 20/36/36
f 7/37/37 19/38/38 12/39/39
f 19/40/40 7/41/41 20/42/42
f 13/43/43 11/44/44 14/45/45
f 11/46/46 13/47/47 8/48/48
f 12/49/49 9/50/50 10/51/51
f 9/52/52 12/53/53 11/54/54
f 19/55/55 11/56/56 12/57/57
f 11/58/58 19/59/59 14/60/60
f 16/61/61 20/62/62 13/63/63
f 20/64/64 16/65/65 17/66/66
f 16/67/67 14/68/68 15/69/69
f 14/70/70 16/71/71 13/72/72
f 18/73/73 14/74/74 19/75/75
f 14/76/76 18/77/77 15/78/78
f 18/79/79 16/80/80 15/81/81
f 16/82/82 18/83/83 17/84/84
f 20/85/85 18/86/86 19/87/87
f 18/88/88 20/89/89 17/90/90
