# Blender v2.91.0 OBJ File: 'Vita Cover Extended v3.blend'
# www.blender.org
mtllib boxgb_noreflx.mtl
o boxgb_noreflx_box.005
v -0.774782 1.557269 -0.093598
v -0.774782 0.011500 -0.093598
v -0.774782 0.011500 0.093598
v -0.774782 1.557269 0.093599
v 0.780586 1.235715 -0.093598
v 0.780586 0.011500 -0.093599
v 0.780586 0.011500 0.018098
v 0.780586 0.011500 0.093598
v 0.780586 0.011500 0.090589
v 0.780586 0.044889 0.093599
v 0.780586 0.011500 0.087054
v 0.780586 1.557269 -0.093598
v 0.780586 1.557269 -0.090589
v 0.780586 1.523879 -0.093598
v 0.780586 1.523879 0.087054
v 0.780586 1.557269 0.087054
v 0.780586 1.557269 0.093599
v 0.023267 1.557269 -0.000907
vt 0.000000 0.000000
vt 0.000000 0.000000
vt 0.000000 0.000000
vt 0.000000 0.000000
vt 0.000000 0.000000
vt 0.000000 0.000000
vt 0.000000 0.000000
vt 0.000000 0.000000
vt 0.000000 0.000000
vt 0.485539 0.009654
vt 0.485539 0.008746
vt 0.484807 0.009640
vt 0.484807 0.009654
vt 0.485163 0.009654
vt 0.484807 0.008746
vt 0.019502 0.036968
vt 0.482228 0.036968
vt 0.019502 0.982719
vt 0.019502 0.603516
vt 0.482228 0.998171
vt 0.019502 0.998171
vt 0.011253 0.003300
vt 0.011253 0.002769
vt 0.474937 0.002769
vt 0.474937 0.035780
vt 0.011253 0.035780
vt 0.011253 0.016083
vt 0.011253 0.003923
vt 0.979806 0.052420
vt 0.979806 0.998171
vt 0.517080 0.998171
vt 0.517080 0.036968
vt 0.979806 0.036968
vt 0.519420 0.042800
vt 0.519420 0.996860
vt 0.480580 0.042800
vt 0.480580 0.996860
vt 0.237024 0.019434
vt 0.011253 0.003923
vt 0.011253 0.035249
vt 0.474937 0.002769
vt 0.011253 0.002769
vt 0.011253 0.035780
vt 0.474937 0.035780
vn 1.0000 -0.0000 0.0000
vn -0.1154 -0.0000 0.9933
vn -0.0000 0.0000 -1.0000
vn 0.0000 -1.0000 -0.0000
vn -0.0000 -0.0000 1.0000
vn -1.0000 0.0000 0.0000
vn 0.0000 1.0000 -0.0000
usemtl acmat_0
s off
f 7/1/1 6/2/1 5/3/1
f 12/4/1 13/5/1 16/6/1 15/7/1 11/8/1 7/1/1 5/3/1 14/9/1
s 1
f 1/10/2 2/11/2 15/12/2 16/13/2 18/14/2
f 2/11/2 11/15/2 15/12/2
f 6/16/3 2/17/3 14/18/3 5/19/3
f 1/20/3 12/21/3 14/18/3 2/17/3
f 9/22/4 8/23/4 3/24/4 2/25/4
f 2/25/4 6/26/4 7/27/4 11/28/4
f 11/28/4 9/22/4 2/25/4
f 10/29/5 17/30/5 4/31/5
f 4/31/5 3/32/5 8/33/5 10/29/5
f 3/34/6 4/35/6 2/36/6
f 1/37/6 2/36/6 4/35/6
f 18/38/7 16/39/7 13/40/7
f 4/41/7 17/42/7 16/39/7 18/38/7
f 18/38/7 13/40/7 12/43/7 1/44/7
f 4/41/7 18/38/7 1/44/7
