mtllib boxpsp_noreflx.mtl
g g0
v 0.666911 2.42254 -0.0842388
v 0.666911 2.42254 0.0842386
v -0.738692 2.42254 0.0842386
v -0.738692 2.42254 -0.0842386
v -0.738692 0.013238 -0.0842386
v -0.738692 0.013238 0.0842386
v 0.666911 0.013238 0.0842386
v 0.666911 0.013238 -0.0842388
v 0.685287 2.41018 0.0842386
v 0.685287 0.0255948 0.0842386
v 0.70069 2.38624 0.0842386
v 0.70069 0.0495375 0.0842386
v 0.685287 0.0255948 -0.0842388
v 0.685287 2.41018 -0.0842388
v 0.70069 2.38624 -0.0842388
v 0.70069 0.0495375 -0.0842388
vn 0 1 0
vn 0.193462 0.981108 0
vn 0 1 0
vn 0.193462 0.981108 0
vn 0 1 0
vn 0.386925 0.922111 0
vn -1 0 0
vn -1 0 0
vn -1 0 0
vn -1 0 0
vn -1 0 0
vn -1 0 0
vn 0 0 1
vn 0 0 1
vn 0 0 1
vn 0 0 1
vn 0 0 1
vn 0 0 1
vn 0.193464 -0.981107 0
vn 0 -1 0
vn 0.386928 -0.92211 0
vn 0 -1 0
vn 0.193464 -0.981107 0
vn 0 -1 0
vn -1.27215e-007 0 -1
vn -1.90823e-007 0 -1
vn -1.90823e-007 0 -1
vn -1.90823e-007 0 -1
vn -1.27215e-007 0 -1
vn -6.36076e-008 0 -1
vn 0 0 1
vn 0 0 1
vn 0 0 1
vn 0 0 1
vn 0 0 1
vn 0 0 1
vn 0 0 1
vn 0 0 1
vn 0 0 1
vn 0 0 1
vn 0 0 1
vn 0 0 1
vn 0.714249 -0.699892 0
vn 0.386928 -0.92211 0
vn 0.714249 -0.699892 0
vn 0.386928 -0.92211 0
vn 0.714249 -0.699892 0
vn 0.193464 -0.981107 0
vn 0.386925 0.922111 0
vn 0.71423 0.699911 0
vn 0.193462 0.981108 0
vn 0.71423 0.699911 0
vn 0.386925 0.922111 0
vn 0.71423 0.699911 0
vn 0 0 -1
vn -6.36076e-008 0 -1
vn -1.27215e-007 0 -1
vn -6.36076e-008 0 -1
vn 0 0 -1
vn 0 0 -1
vn 0.982344 -0.187082 0
vn 0.982341 0.187097 0
vn 0.92735 0.374195 0
vn 0.982341 0.187097 0
vn 0.982344 -0.187082 0
vn 0.927363 -0.374164 0
vn 0.714249 -0.699892 0
vn 0.927363 -0.374164 0
vn 0.982344 -0.187082 0
vn 0.927363 -0.374164 0
vn 0.714249 -0.699892 0
vn 0.714249 -0.699892 0
vn 0.92735 0.374195 0
vn 0.71423 0.699911 0
vn 0.71423 0.699911 0
vn 0.71423 0.699911 0
vn 0.92735 0.374195 0
vn 0.982341 0.187097 0
vn 0 0 -1
vn 0 0 -1
vn 0 0 -1
vn 0 0 -1
vn 0 0 -1
vn 0 0 -1
vt 0.474937 0.002769
vt 0.003677 0.03578
vt 0.474937 0.03578
vt 0.003677 0.03578
vt 0.474937 0.002769
vt 0.003677 0.002769
vt 0.465194 0.0439764
vt 0.534807 0.996862
vt 0.465194 0.996862
vt 0.534807 0.996862
vt 0.465194 0.0439764
vt 0.534807 0.0439764
vt 0.987366 0.0381516
vt 0.530612 0.998171
vt 0.530612 0.0381516
vt 0.530612 0.998171
vt 0.987366 0.0381516
vt 0.987366 0.998171
vt 0.003677 0.002769
vt 0.474937 0.03578
vt 0.003677 0.03578
vt 0.474937 0.03578
vt 0.003677 0.002769
vt 0.474937 0.002769
vt 0.011942 0.998171
vt 0.468147 0.0381516
vt 0.468147 0.998171
vt 0.468147 0.0381516
vt 0.011942 0.998171
vt 0.011942 0.0381516
vt 0.993514 0.0444967
vt 0.987366 0.998171
vt 0.987366 0.0381516
vt 0.987366 0.998171
vt 0.993514 0.0444967
vt 0.993514 0.991827
vt 0.998668 0.0567936
vt 0.993514 0.991827
vt 0.993514 0.0444967
vt 0.993514 0.991827
vt 0.998668 0.0567936
vt 0.998668 0.97953
vt 0.532543 0.036041
vt 0.529523 0.002973
vt 0.532543 0.002973
vt 0.529523 0.002973
vt 0.532543 0.036041
vt 0.529523 0.036041
vt 0.986538 0.036041
vt 0.983518 0.002973
vt 0.986538 0.002973
vt 0.983518 0.002973
vt 0.986538 0.036041
vt 0.983518 0.036041
vt 0.00579399 0.991827
vt 0.011942 0.0381516
vt 0.011942 0.998171
vt 0.011942 0.0381516
vt 0.00579399 0.991827
vt 0.00579399 0.0444967
vt 0.538397 0.036041
vt 0.977664 0.002973
vt 0.977664 0.036041
vt 0.977664 0.002973
vt 0.538397 0.036041
vt 0.538397 0.002973
vt 0.532543 0.036041
vt 0.538397 0.002973
vt 0.538397 0.036041
vt 0.538397 0.002973
vt 0.532543 0.036041
vt 0.532543 0.002973
vt 0.977664 0.036041
vt 0.983518 0.002973
vt 0.983518 0.036041
vt 0.983518 0.002973
vt 0.977664 0.036041
vt 0.977664 0.002973
vt 0.000640005 0.97953
vt 0.00579399 0.0444967
vt 0.00579399 0.991827
vt 0.00579399 0.0444967
vt 0.000640005 0.97953
vt 0.000640005 0.0567936
usemtl acmat_0
f 3/1/1 1/2/2 4/3/3
f 1/4/4 3/5/5 2/6/6
f 5/7/7 3/8/8 4/9/9
f 3/10/10 5/11/11 6/12/12
f 7/13/13 3/14/14 6/15/15
f 3/16/16 7/17/17 2/18/18
f 7/19/19 5/20/20 8/21/21
f 5/22/22 7/23/23 6/24/24
f 1/25/25 5/26/26 4/27/27
f 5/28/28 1/29/29 8/30/30
f 10/31/31 2/32/32 7/33/33
f 2/34/34 10/35/35 9/36/36
f 12/37/37 9/38/38 10/39/39
f 9/40/40 12/41/41 11/42/42
f 10/43/43 8/44/44 13/45/45
f 8/46/46 10/47/47 7/48/48
f 2/49/49 14/50/50 1/51/51
f 14/52/52 2/53/53 9/54/54
f 14/55/55 8/56/56 1/57/57
f 8/58/58 14/59/59 13/60/60
f 12/61/61 15/62/62 11/63/63
f 15/64/64 12/65/65 16/66/66
f 10/67/67 16/68/68 12/69/69
f 16/70/70 10/71/71 13/72/72
f 11/73/73 14/74/74 9/75/75
f 14/76/76 11/77/77 15/78/78
f 15/79/79 13/80/80 14/81/81
f 13/82/82 15/83/83 16/84/84
