mtllib boxpsx.mtl
g g0
v -0.813339 -0.00903291 0.0770885
v -0.813339 -1.55902 0.0770885
v 0.73666 -1.55903 0.0770885
v 0.73666 -0.00903291 0.0770885
v -0.813439 -1.55892 -0.0769885
v -0.813439 -0.00893289 -0.0769885
v 0.73656 -1.55893 -0.0769885
v 0.73656 -0.00893289 -0.0769885
v 0.73666 -0.00903291 -0.0769885
v 0.73666 -1.55903 -0.0769885
v -0.813339 -1.55902 -0.0769885
v -0.813339 -0.00903291 -0.0769885
v -0.813339 0.00903291 0.0770885
v -0.813339 1.55902 0.0770885
v 0.73666 1.55903 0.0770885
v 0.73666 0.00903291 0.0770885
v -0.813439 1.55892 -0.0769885
v -0.813439 0.00893289 -0.0769885
v 0.73656 1.55893 -0.0769885
v 0.73656 0.00893289 -0.0769885
v 0.73666 0.00903291 -0.0769885
v 0.73666 1.55903 -0.0769885
v -0.813339 1.55902 -0.0769885
v -0.813339 0.00903291 -0.0769885
vn 0 1 0.000649134
vn 0 1 0.000649134
vn 0 1 0.000649134
vn 0 1 0.000649134
vn 0 1 0.000649134
vn 0 1 0.000649134
vn -1 0 0.000649134
vn -1 0 0.000649134
vn -1 0 0.000649134
vn -1 0 0.000649134
vn -1 0 0.000649134
vn -1 0 0.000649134
vn -6.46038e-006 -1 -0.00064913
vn -6.46038e-006 -1 -0.00064913
vn -6.46038e-006 -1 -0.00064913
vn -6.46038e-006 -1 -0.00064913
vn -6.46038e-006 -1 -0.00064913
vn -6.46038e-006 -1 -0.00064913
vn 1 0 -0.000649134
vn 1 0 -0.000649134
vn 1 0 -0.000649134
vn 1 0 -0.000649134
vn 1 0 -0.000649134
vn 1 0 -0.000649134
vn 0 0 1
vn 0 0 1
vn 0 0 1
vn 0 0 1
vn 0 0 1
vn 0 0 1
vn 0 0 -1
vn 0 0 -1
vn 0 0 -1
vn 0 0 -1
vn 0 0 -1
vn 0 0 -1
vn 0 -1 0.000649134
vn 0 -1 0.000649134
vn 0 -1 0.000649134
vn 0 -1 0.000649134
vn 0 -1 0.000649134
vn 0 -1 0.000649134
vn -1 0 0.000649134
vn -1 0 0.000649134
vn -1 0 0.000649134
vn -1 0 0.000649134
vn -1 0 0.000649134
vn -1 0 0.000649134
vn -6.46038e-006 1 -0.00064913
vn -6.46038e-006 1 -0.00064913
vn -6.46038e-006 1 -0.00064913
vn -6.46038e-006 1 -0.00064913
vn -6.46038e-006 1 -0.00064913
vn -6.46038e-006 1 -0.00064913
vn 1 0 -0.000649134
vn 1 0 -0.000649134
vn 1 0 -0.000649134
vn 1 0 -0.000649134
vn 1 0 -0.000649134
vn 1 0 -0.000649134
vn 0 0 1
vn 0 0 1
vn 0 0 1
vn 0 0 1
vn 0 0 1
vn 0 0 1
vn 0 0 -1
vn 0 0 -1
vn 0 0 -1
vn 0 0 -1
vn 0 0 -1
vn 0 0 -1
vt 0.482041 0.0411269
vt 0.0026325 0.0411269
vt 0.482041 0.00408128
vt 0.00265968 0.00408128
vt 0.482041 0.00408128
vt 0.0026325 0.0411269
vt 0.476123 0.046183
vt 0.476123 0.990243
vt 0.525148 0.046183
vt 0.525148 0.990243
vt 0.525148 0.046183
vt 0.476123 0.990243
vt 0.517621 0.0411269
vt 0.998371 0.0411269
vt 0.517646 0.00408128
vt 0.998402 0.00408128
vt 0.517646 0.00408128
vt 0.998371 0.0411269
vt 0.517646 0.0411269
vt 0.517646 0.00408128
vt 0.998402 0.0411269
vt 0.998402 0.00408128
vt 0.998402 0.0411269
vt 0.517646 0.00408128
vt 0.525148 0.046183
vt 0.525148 0.990243
vt 0.998371 0.046875
vt 0.998371 0.990243
vt 0.998371 0.046875
vt 0.525148 0.990243
vt 0.476123 0.990243
vt 0.00211382 0.046183
vt 0.00211382 0.990249
vt 0.00211382 0.046183
vt 0.476123 0.990243
vt 0.476123 0.046183
vt 0.482041 0.00408128
vt 0.0026325 0.0411269
vt 0.482041 0.0411269
vt 0.0026325 0.0411269
vt 0.482041 0.00408128
vt 0.00265968 0.00408128
vt 0.525148 0.046183
vt 0.476123 0.990243
vt 0.476123 0.046183
vt 0.476123 0.990243
vt 0.525148 0.046183
vt 0.525148 0.990243
vt 0.517646 0.00408128
vt 0.998371 0.0411269
vt 0.517621 0.0411269
vt 0.998371 0.0411269
vt 0.517646 0.00408128
vt 0.998402 0.00408128
vt 0.998402 0.0411269
vt 0.517646 0.00408128
vt 0.517646 0.0411269
vt 0.517646 0.00408128
vt 0.998402 0.0411269
vt 0.998402 0.00408128
vt 0.998371 0.046875
vt 0.525148 0.990243
vt 0.525148 0.046183
vt 0.525148 0.990243
vt 0.998371 0.046875
vt 0.998371 0.990243
vt 0.00211382 0.990249
vt 0.00211382 0.046183
vt 0.476123 0.990243
vt 0.476123 0.046183
vt 0.476123 0.990243
vt 0.00211382 0.046183
usemtl acmat_0
f 8/1/1 6/2/2 4/3/3
f 1/4/4 4/5/5 6/6/6
f 6/7/7 5/8/8 1/9/9
f 2/10/10 1/11/11 5/12/12
f 5/13/13 7/14/14 2/15/15
f 3/16/16 2/17/17 7/18/18
f 8/19/19 4/20/20 7/21/21
f 3/22/22 7/23/23 4/24/24
f 1/25/25 2/26/26 4/27/27
f 3/28/28 4/29/29 2/30/30
f 11/31/31 9/32/32 10/33/33
f 9/34/34 11/35/35 12/36/36
f 16/37/37 18/38/38 20/39/39
f 18/40/40 16/41/41 13/42/42
f 13/43/43 17/44/44 18/45/45
f 17/46/46 13/47/47 14/48/48
f 14/49/49 19/50/50 17/51/51
f 19/52/52 14/53/53 15/54/54
f 19/55/55 16/56/56 20/57/57
f 16/58/58 19/59/59 15/60/60
f 16/61/61 14/62/62 13/63/63
f 14/64/64 16/65/65 15/66/66
f 22/67/67 21/68/68 23/69/69
f 24/70/70 23/71/71 21/72/72
