# Blender v2.91.0 OBJ File: 'Vita Cover Extended v7 - Cover Wrapping - Other Systems.blend'
# www.blender.org
mtllib boxsnes.mtl
o boxsnes_boxgb_box.001
v 1.132182 -1.521098 -0.093599
v 1.132182 -0.011500 -0.093599
v 1.132182 -0.011501 0.020196
v 1.132182 -0.744272 0.087054
v 1.132182 -1.521098 0.087054
v 1.132182 -1.554487 0.087054
v 1.132182 -1.554487 -0.090590
v 1.132182 -1.554487 -0.093599
v 1.132182 0.011500 0.018098
v 1.132182 0.011500 -0.093599
v 1.132182 1.235715 -0.093598
v 1.132182 -0.011501 0.087054
v 1.132182 1.557269 -0.093598
v 1.132182 1.557269 -0.090589
v 1.132182 1.557269 0.087054
v 1.132182 1.523879 0.087054
v 1.132182 0.011500 0.087054
v 1.132182 1.523879 -0.093598
v -1.123764 1.557269 -0.093598
v -1.123764 0.011500 -0.093598
v 0.033747 1.557269 -0.000907
v -1.123764 -0.011500 -0.093598
v 0.033747 -1.554487 -0.000907
v -1.123764 -1.554487 -0.093599
v -1.123764 -1.554487 0.093598
v 1.132182 -1.554487 0.093598
v -1.123764 -0.011501 0.093598
v 1.132182 -0.044890 0.093598
v 1.132182 -0.011501 0.093598
v 1.132182 -0.011501 0.090589
v 1.132182 0.011500 0.090589
v 1.132182 0.011500 0.093598
v -1.123764 0.011500 0.093598
v 1.132182 0.044889 0.093599
v 1.132182 1.557269 0.093599
v -1.123764 1.557269 0.093599
vt 0.000000 0.000000
vt 0.000000 0.000000
vt 0.000000 0.000000
vt 0.000000 0.000000
vt 0.000000 0.000000
vt 0.000000 0.000000
vt 0.000000 0.000000
vt 0.000000 0.000000
vt 0.000000 0.000000
vt 0.000000 0.000000
vt 0.000000 0.000000
vt 0.000000 0.000000
vt 0.000000 0.000000
vt 0.000000 0.000000
vt 0.000000 0.000000
vt 0.000000 0.000000
vt 0.000000 0.000000
vt 0.000000 0.000000
vt 0.485539 0.009654
vt 0.485539 0.008746
vt 0.484807 0.009640
vt 0.484807 0.009654
vt 0.485163 0.009654
vt 0.484807 0.008746
vt 0.484807 0.009067
vt 0.484807 0.008746
vt 0.485539 0.008746
vt 0.484807 0.009640
vt 0.485163 0.009654
vt 0.484807 0.009654
vt 0.485539 0.009654
vt 0.011253 0.035780
vt 0.011253 0.035249
vt 0.237024 0.019434
vt 0.474937 0.035780
vt 0.474937 0.002769
vt 0.011253 0.003923
vt 0.011253 0.002769
vt 0.519420 0.996860
vt 0.480580 0.042800
vt 0.480580 0.996860
vt 0.519420 0.042800
vt 0.979806 0.052420
vt 0.979806 0.036968
vt 0.517080 0.036968
vt 0.517080 0.998171
vt 0.979806 0.998171
vt 0.011253 0.035780
vt 0.474937 0.035780
vt 0.011253 0.003923
vt 0.011253 0.015713
vt 0.011253 0.003300
vt 0.474937 0.002769
vt 0.011253 0.002769
vt 0.482228 0.998171
vt 0.482228 0.036968
vt 0.019502 0.982719
vt 0.019502 0.998171
vt 0.019502 0.036968
vt 0.019502 0.036968
vt 0.482228 0.036968
vt 0.019502 0.982719
vt 0.019502 0.603516
vt 0.482228 0.998171
vt 0.019502 0.998171
vt 0.011253 0.003300
vt 0.011253 0.002769
vt 0.474937 0.002769
vt 0.474937 0.035780
vt 0.011253 0.035780
vt 0.011253 0.016083
vt 0.011253 0.003923
vt 0.979806 0.052420
vt 0.979806 0.998171
vt 0.517080 0.998171
vt 0.517080 0.036968
vt 0.979806 0.036968
vt 0.519420 0.042800
vt 0.519420 0.996860
vt 0.480580 0.042800
vt 0.480580 0.996860
vt 0.237024 0.019434
vt 0.011253 0.003923
vt 0.011253 0.035249
vt 0.474937 0.002769
vt 0.011253 0.002769
vt 0.011253 0.035780
vt 0.474937 0.035780
vn 1.0000 0.0000 0.0000
vn -0.0798 0.0000 0.9968
vn 0.0000 -1.0000 0.0000
vn -1.0000 -0.0000 0.0000
vn 0.0000 -0.0000 1.0000
vn 0.0000 1.0000 0.0000
vn -0.0000 0.0000 -1.0000
usemtl acmat_0.005
s off
f 1/1/1 2/2/1 3/3/1 4/4/1 5/5/1 6/6/1 7/7/1 8/8/1
f 9/9/1 10/10/1 11/11/1
f 3/3/1 12/12/1 4/4/1
f 13/13/1 14/14/1 15/15/1 16/16/1 17/17/1 9/9/1 11/11/1 18/18/1
s 1
f 19/19/2 20/20/2 16/21/2 15/22/2 21/23/2
f 20/20/2 17/24/2 16/21/2
f 4/25/2 12/26/2 22/27/2 5/28/2
f 23/29/2 6/30/2 5/28/2 22/27/2 24/31/2
f 8/32/3 7/33/3 23/34/3 24/35/3
f 25/36/3 24/35/3 23/34/3
f 7/33/3 6/37/3 23/34/3
f 26/38/3 25/36/3 23/34/3 6/37/3
f 25/39/4 22/40/4 24/41/4
f 22/40/4 25/39/4 27/42/4
f 28/43/5 29/44/5 27/45/5 25/46/5
f 28/43/5 25/46/5 26/47/5
f 2/48/6 22/49/6 12/50/6 3/51/6
f 12/50/6 22/49/6 30/52/6
f 27/53/6 29/54/6 30/52/6 22/49/6
f 24/55/7 22/56/7 1/57/7 8/58/7
f 1/57/7 22/56/7 2/59/7
f 10/60/7 20/61/7 18/62/7 11/63/7
f 19/64/7 13/65/7 18/62/7 20/61/7
f 31/66/3 32/67/3 33/68/3 20/69/3
f 20/69/3 10/70/3 9/71/3 17/72/3
f 17/72/3 31/66/3 20/69/3
f 34/73/5 35/74/5 36/75/5
f 36/75/5 33/76/5 32/77/5 34/73/5
f 33/78/4 36/79/4 20/80/4
f 19/81/4 20/80/4 36/79/4
f 21/82/6 15/83/6 14/84/6
f 36/85/6 35/86/6 15/83/6 21/82/6
f 21/82/6 14/84/6 13/87/6 19/88/6
f 36/85/6 21/82/6 19/88/6
