mtllib cover_square.mtl
g g0
v -0.813339 0.00509995 0.1001
v -0.813339 1.55509 0.1001
v 0.73666 1.5551 0.1001
v 0.73666 0.00509995 0.1001
v -0.813439 1.55499 -0.1
v -0.813439 0.00499994 -0.1
v 0.73656 1.555 -0.1
v 0.73656 0.00499994 -0.1
vn 0 -1 0.000499833
vn 0 -1 0.000499833
vn 0 -1 0.000499833
vn 0 -1 0.000499833
vn 0 -1 0.000499833
vn 0 -1 0.000499833
vn -1 0 0.000499833
vn -1 0 0.000499833
vn -1 0 0.000499833
vn -1 0 0.000499833
vn -1 0 0.000499833
vn -1 0 0.000499833
vn -5.53746e-006 1 -0.00049983
vn -5.53746e-006 1 -0.00049983
vn -5.53746e-006 1 -0.00049983
vn -5.53746e-006 1 -0.00049983
vn -5.53746e-006 1 -0.00049983
vn -5.53746e-006 1 -0.00049983
vn 1 0 -0.000499833
vn 1 0 -0.000499833
vn 1 0 -0.000499833
vn 1 0 -0.000499833
vn 1 0 -0.000499833
vn 1 0 -0.000499833
vn 0 0 1
vn 0 0 1
vn 0 0 1
vn 0 0 1
vn 0 0 1
vn 0 0 1
vt 0 0
vt 0 0
vt 0 0
vt 0 0
vt 0 0
vt 0 0
vt 0 0
vt 0 0
vt 0 0
vt 0 0
vt 0 0
vt 0 0
vt 0 0
vt 0 0
vt 0 0
vt 0 0
vt 0 0
vt 0 0
vt 0 0
vt 0 0
vt 0 0
vt 0 0
vt 0 0
vt 0 0
vt 0.95 0.000358641
vt 0.05 1
vt 0.05 0.000358641
vt 0.05 1
vt 0.95 0.000358641
vt 0.95 1
usemtl acmat_0
f 4/1/1 6/2/2 8/3/3
f 6/4/4 4/5/5 1/6/6
f 1/7/7 5/8/8 6/9/9
f 5/10/10 1/11/11 2/12/12
f 2/13/13 7/14/14 5/15/15
f 7/16/16 2/17/17 3/18/18
f 7/19/19 4/20/20 8/21/21
f 4/22/22 7/23/23 3/24/24
f 4/25/25 2/26/26 1/27/27
f 2/28/28 4/29/29 3/30/30
