# Blender v2.91.0 OBJ File: 'Vita Cover Extended v8 - Cover Wrapping - .blend'
# www.blender.org
mtllib covertape.mtl
o covertape_covergb_cover.010
v -0.588503 0.012246 -0.095296
v -0.586384 1.554025 0.087338
v -0.588503 1.554025 -0.095295
v -0.586384 0.012246 0.087336
v 0.572507 0.012246 0.091901
v 0.572507 1.554035 0.091902
v 0.572507 -1.552963 0.091900
v 0.572507 -0.012255 0.091901
v -0.586384 -1.552963 0.087336
v -0.586384 -0.012255 0.087336
v -0.588503 -0.012255 -0.095296
v -0.588503 -1.552963 -0.095297
v 0.571051 -1.552918 -0.095179
v 0.571051 -0.012210 -0.095178
v 0.572507 0.012246 0.091901
v 0.572507 1.554035 0.091902
v 0.571051 0.012291 -0.095178
v 0.571051 1.554080 -0.095178
vt 0.998884 0.000035
vt 0.998884 0.999936
vt 0.993591 0.000064
vt 0.993591 0.999965
vt 0.993592 0.000064
vt 0.998888 0.999936
vt 0.993592 0.999965
vt 0.998888 0.000035
vt 0.000000 0.000000
vt 0.010703 1.000000
vt 0.000000 1.000000
vt 0.010703 0.000000
vt 0.994785 0.000000
vt 0.994785 1.000000
vt 0.994785 1.000000
vt 0.994785 0.000000
vt 0.010703 1.000000
vt 0.010703 0.000000
vt 0.000000 0.000000
vt 0.000000 1.000000
vt 0.991239 0.000099
vt 0.991239 0.999228
vt 0.977609 0.999200
vt 0.977609 0.000070
vt 0.977330 0.999901
vt 0.977330 0.000070
vt 0.990960 0.000099
vt 0.990960 0.999930
vn -1.0000 0.0000 0.0078
vn -0.9999 0.0000 0.0116
vn -0.0039 -0.0000 1.0000
vn 1.0000 0.0000 -0.0078
usemtl acmat_0.003
s off
f 15/1/1 16/2/1 17/3/1
f 7/4/1 8/5/1 13/6/1
f 16/2/1 18/7/1 17/3/1
f 8/5/1 14/8/1 13/6/1
s 1
f 1/9/2 2/10/2 3/11/2
f 2/10/2 1/9/2 4/12/2
f 5/13/3 2/10/3 4/12/3
f 2/10/3 5/13/3 6/14/3
f 7/15/3 8/16/3 9/17/3
f 10/18/3 9/17/3 8/16/3
f 10/18/2 11/19/2 9/17/2
f 12/20/2 9/17/2 11/19/2
f 8/21/4 7/22/4 13/23/4 14/24/4
f 16/25/4 15/26/4 17/27/4 18/28/4
