# Blender v2.91.0 OBJ File: 'Vita Cover Extended v2.blend'
# www.blender.org
mtllib covern64.mtl
o covern64_cover
v -0.818658 0.012246 -0.093598
v -0.815862 2.085256 0.089035
v -0.818658 2.085256 -0.093598
v -0.815862 0.012246 0.089034
v 0.713911 0.012246 0.093599
v 0.713911 2.085266 0.093599
v 0.713911 -2.086975 0.093598
v 0.713911 -0.012255 0.093598
v -0.815862 -2.086975 0.089034
v -0.815862 -0.012255 0.089034
v -0.818658 -0.012255 -0.093598
v -0.818658 -2.086975 -0.093599
vt 0.002510 0.000359
vt 0.013045 0.904283
vt 0.002510 0.904283
vt 0.013045 0.000359
vt 0.986755 0.000359
vt 0.986755 0.904283
vt 0.986755 0.904283
vt 0.986755 0.000359
vt 0.013045 0.904283
vt 0.013045 0.000359
vt 0.002510 0.000359
vt 0.002510 0.904283
vn -0.9999 -0.0000 0.0153
vn -0.0030 -0.0000 1.0000
usemtl acmat_0.001
s 1
f 1/1/1 2/2/1 3/3/1
f 2/2/1 1/1/1 4/4/1
f 5/5/2 2/2/2 4/4/2
f 2/2/2 5/5/2 6/6/2
f 7/7/2 8/8/2 9/9/2
f 10/10/2 9/9/2 8/8/2
f 10/10/1 11/11/1 9/9/1
f 12/12/1 9/9/1 11/11/1
