# Blender v2.91.0 OBJ File: ''
# www.blender.org
mtllib cover_square_gb.mtl
o cover_square
v -0.922419 1.559020 0.100100
v 0.819355 0.009033 0.100100
v 0.819355 1.559030 0.100100
v -0.922419 0.009033 0.100100
v 0.819243 1.558930 -0.100000
v 0.819243 0.008933 -0.100000
v -0.922532 1.558920 -0.100000
v -0.922532 0.008933 -0.100000
v 0.819243 -0.012738 -0.100000
v -0.922532 -0.012738 -0.100000
v 0.819355 -0.012838 0.100100
v -0.922419 -0.012838 0.100100
v -0.922532 -1.562730 -0.100000
v -0.922419 -1.562830 0.100100
v 0.819243 -1.562740 -0.100000
v 0.819355 -1.562840 0.100100
vt 0.050000 1.000000
vt 0.950000 0.000359
vt 0.950000 1.000000
vt 0.050000 0.000359
vt 0.988060 0.000100
vt 1.000912 0.999900
vt 0.988060 0.999964
vt 1.000912 0.000036
vt 0.034374 0.000000
vt 0.034374 0.000000
vt 0.034374 0.000000
vt 0.034374 0.000000
vt -0.000138 0.999900
vt 0.014640 0.000100
vt 0.014640 0.999964
vt -0.000138 0.000036
vt 0.034374 0.000000
vt 0.034374 0.000000
vt 0.034374 0.000000
vt 0.000000 0.000000
vt 0.000000 0.000000
vt 0.000000 0.000000
vt 0.034374 0.000000
vt 0.034374 0.000000
vt 0.034374 0.000000
vt 0.034374 0.000000
vt 0.034374 0.000000
vt 0.034374 0.000000
vt 0.000000 0.000000
vt 0.000000 0.000000
vt 0.000000 0.000000
vt 0.000000 0.000000
vt 0.000000 0.000000
vt 0.000000 0.000000
vt 0.050000 0.000359
vt 0.050000 1.000000
vt 0.950000 0.000359
vt 0.950000 1.000000
vn -0.0000 -0.0000 1.0000
vn 1.0000 0.0000 -0.0006
vn -0.0000 1.0000 -0.0005
vn -1.0000 -0.0000 0.0006
vn 0.0000 -1.0000 0.0005
vn 0.0000 1.0000 0.0005
vn -0.0000 -1.0000 -0.0005
usemtl acmat_0.001
s 1
f 1/1/1 2/2/1 3/3/1
f 2/2/1 1/1/1 4/4/1
f 2/5/2 5/6/2 3/7/2
f 5/6/2 2/5/2 6/8/2
f 5/9/3 1/10/3 3/11/3
f 1/10/3 5/9/3 7/12/3
f 7/13/4 4/14/4 1/15/4
f 4/14/4 7/13/4 8/16/4
f 8/17/5 2/18/5 4/19/5
f 2/20/5 8/21/5 6/22/5
f 9/23/6 10/24/6 11/25/6
f 12/26/6 11/25/6 10/24/6
f 10/24/4 13/27/4 12/26/4
f 14/28/4 12/26/4 13/27/4
f 13/29/7 15/30/7 14/31/7
f 16/32/7 14/31/7 15/30/7
f 9/33/2 11/34/2 15/30/2
f 16/32/2 15/30/2 11/34/2
f 12/35/1 14/36/1 11/37/1
f 16/38/1 11/37/1 14/36/1
