# Blender v2.91.0 OBJ File: ''
# www.blender.org
mtllib covergb.mtl
o covergb_cover.004
v -0.774782 0.012246 -0.089754
v -0.771952 1.554025 0.092879
v -0.774782 1.554025 -0.089754
v -0.771952 0.012246 0.092878
v 0.776431 0.012246 0.097443
v 0.776431 1.554035 0.097443
v 0.776431 -1.552963 0.097442
v 0.776431 -0.012255 0.097443
v -0.771952 -1.552963 0.092878
v -0.771952 -0.012255 0.092878
v -0.774782 -0.012255 -0.089754
v -0.774782 -1.552963 -0.089755
v 0.774486 -1.552918 -0.089638
v 0.774486 -0.012210 -0.089636
v 0.776431 0.012246 0.097443
v 0.776431 1.554035 0.097443
v 0.774486 0.012291 -0.089636
v 0.774486 1.554080 -0.089636
vt 0.986151 0.000035
vt 0.986151 0.999936
vt 0.975278 0.000064
vt 0.975278 0.999965
vt 0.975278 0.000064
vt 0.986158 0.999936
vt 0.975278 0.999965
vt 0.986158 0.000035
vt 0.000000 0.000000
vt 0.010703 1.000000
vt 0.000000 1.000000
vt 0.010703 0.000000
vt 0.975592 0.000000
vt 0.975592 1.000000
vt 0.975592 1.000000
vt 0.975592 0.000000
vt 0.010703 1.000000
vt 0.010703 0.000000
vt 0.000000 0.000000
vt 0.000000 1.000000
vt 0.991239 0.000099
vt 0.991239 0.999228
vt 0.977609 0.999200
vt 0.977609 0.000070
vt 0.977330 0.999901
vt 0.977330 0.000070
vt 0.990960 0.000099
vt 0.990960 0.999930
vn -0.9999 0.0000 0.0104
vn -0.9999 0.0000 0.0155
vn -0.0029 -0.0000 1.0000
vn 0.9999 -0.0000 -0.0104
usemtl acmat_0.003
s off
f 15/1/1 16/2/1 17/3/1
f 7/4/1 8/5/1 13/6/1
f 16/2/1 18/7/1 17/3/1
f 8/5/1 14/8/1 13/6/1
s 1
f 1/9/2 2/10/2 3/11/2
f 2/10/2 1/9/2 4/12/2
f 5/13/3 2/10/3 4/12/3
f 2/10/3 5/13/3 6/14/3
f 7/15/3 8/16/3 9/17/3
f 10/18/3 9/17/3 8/16/3
f 10/18/2 11/19/2 9/17/2
f 12/20/2 9/17/2 11/19/2
f 8/21/4 7/22/4 13/23/4 14/24/4
f 16/25/4 15/26/4 17/27/4 18/28/4
